# xmcd
#
# Track frame offsets:
#	225
#	10040
#	21408
#	31395
#	44505
#	55450
#	68185
#	78278
#	88930
#	101620
#
# Disc length: 1473 seconds
#
# Revision: 0
# Processed by: cddbd v1.4PL0 Copyright (c) Steve Scherf et al.
# Submitted via: dBpowerAMP V4.0
#
DISCID=8005be0a
DTITLE=Dave Dudley - Greatest Hits Volume One
DYEAR=1900
DGENRE=Greatest h
TTITLE0=Six Days On The Road
TTITLE1=Cowboy Boots
TTITLE2=Fly Away Again
TTITLE3=Mad
TTITLE4=A Truckers Prayer
TTITLE5=There Ain't No Easy Runs
TTITLE6=Comin' Down
TTITLE7=Two Six Packs Away
TTITLE8=Me And Old C. B.
TTITLE9=Truck Driving Man
EXTD=\n\n                                                                                       Les
EXTT0=
EXTT1=
EXTT2=
EXTT3=
EXTT4=
EXTT5=
EXTT6=
EXTT7=
EXTT8=
EXTT9=
PLAYORDER=
